<?xml version="1.0" encoding="UTF-8" standalone="no"?>
<!-- Created with Inkscape (http://www.inkscape.org/) -->

<svg
   width="69.072723mm"
   height="63.661732mm"
   viewBox="0 0 69.072723 63.661731"
   version="1.1"
   id="svg878"
   inkscape:version="1.1.2 (0a00cf5339, 2022-02-04)"
   sodipodi:docname="logo_hero.svg"
   xmlns:inkscape="http://www.inkscape.org/namespaces/inkscape"
   xmlns:sodipodi="http://sodipodi.sourceforge.net/DTD/sodipodi-0.dtd"
   xmlns="http://www.w3.org/2000/svg"
   xmlns:svg="http://www.w3.org/2000/svg">
  <sodipodi:namedview
     id="namedview880"
     pagecolor="#505050"
     bordercolor="#eeeeee"
     borderopacity="1"
     inkscape:pageshadow="0"
     inkscape:pageopacity="0"
     inkscape:pagecheckerboard="0"
     inkscape:document-units="mm"
     showgrid="false"
     inkscape:zoom="1.131351"
     inkscape:cx="94.577191"
     inkscape:cy="153.79842"
     inkscape:window-width="1920"
     inkscape:window-height="1043"
     inkscape:window-x="0"
     inkscape:window-y="0"
     inkscape:window-maximized="1"
     inkscape:current-layer="layer1" />
  <defs
     id="defs875">
    <linearGradient
       id="_Linear1"
       x1="0.3534115"
       y1="0.71860397"
       x2="0.98891985"
       y2="-0.21505889"
       gradientUnits="userSpaceOnUse"
       gradientTransform="matrix(339.865,167.147,-167.147,339.865,20.8333,10.581)">
      <stop
         offset="0"
         style="stop-color:#241c1c;stop-opacity:1"
         id="stop9" />
      <stop
         offset="0.23590045"
         style="stop-color:#ff6600;stop-opacity:1"
         id="stop1339" />
      <stop
         offset="0.59397119"
         style="stop-color:#c8ab37;stop-opacity:1"
         id="stop1533" />
      <stop
         offset="1"
         style="stop-color:#d5f6ff;stop-opacity:1"
         id="stop11" />
    </linearGradient>
    <linearGradient
       id="_Linear1-3"
       x1="0"
       y1="0"
       x2="1.3375449"
       y2="0.4947184"
       gradientUnits="userSpaceOnUse"
       gradientTransform="matrix(43.162854,21.227669,-21.227669,43.162854,41.893915,117.79812)">
      <stop
         offset="0"
         style="stop-color:#006678;stop-opacity:1"
         id="stop9-1" />
      <stop
         offset="1"
         style="stop-color:#4fa8ff;stop-opacity:1"
         id="stop11-5" />
    </linearGradient>
  </defs>
  <g
     inkscape:label="Layer 1"
     inkscape:groupmode="layer"
     id="layer1"
     transform="translate(-55.181955,-134.96632)">
    <ellipse
       style="opacity:0.5;fill:#999999;stroke:#1a1a1a;stroke-width:0.705556;stroke-linecap:round"
       id="path1197"
       cx="78.773354"
       cy="186.34108"
       rx="0.10993546"
       ry="0.9802646" />
    <path
       d="m 84.289045,165.36209 5.229832,-2.62407 v -5.83847 l -5.229832,2.62444 z m 0,-6.46605 5.229832,-2.62407 v -5.83801 l -5.229832,2.62398 z m -6.716396,-21.30721 -5.260229,-2.62251 -5.229745,2.62406 5.260142,2.62244 z m -5.797716,2.90931 -5.260604,-2.62252 -5.229832,2.62406 5.260597,2.62253 z m 6.407453,2.62599 5.229832,-2.62445 -5.263992,-2.62406 -5.229832,2.62406 z m -11.061802,0.28486 5.264079,2.62444 5.229832,-2.62444 -5.264079,-2.62398 z m 16.863823,-2.62398 -5.229832,2.62398 5.263985,2.62407 5.229833,-2.62407 z m -23.269445,0 -5.229835,2.62398 5.260599,2.62252 5.229832,-2.62399 z m 5.835813,2.9093 -5.229832,2.62406 5.263985,2.62445 5.229832,-2.62445 z m 6.142369,27.48647 5.229832,-2.62407 v -5.83801 l -5.229832,2.62398 z m 0,-6.46605 5.229832,-2.62408 v -5.838 l -5.229832,2.62398 z m -0.305092,-18.11103 -5.229833,2.62397 5.264079,2.62408 5.229739,-2.62408 z m -17.206097,16.13432 5.260597,2.62251 v -5.838 l -5.260597,-2.62252 z m 0,-6.46605 5.260597,2.62251 v -5.83801 l -5.260597,-2.62251 z m 0,-6.49491 5.260597,2.62253 v -5.83811 l -5.260597,-2.62252 z m 5.836182,15.87035 5.263985,2.62398 v -5.838 l -5.263985,-2.62408 z m 0,-6.46605 5.263985,2.62435 v -5.83838 l -5.263985,-2.62408 z m 0,-6.49499 5.263985,2.62407 v -5.8381 l -5.263985,-2.62398 z m 5.835805,15.87034 5.263993,2.62407 v -5.8381 l -5.263993,-2.62398 z m 0,-6.46606 5.263993,2.62408 v -5.8381 l -5.263993,-2.62398 z m 0,-6.4949 5.263993,2.62398 v -5.838 l -5.263993,-2.62408 z m 11.637019,12.67564 5.229739,-2.62398 v -5.83847 l -5.229739,2.62445 z m 0,-6.46605 5.229739,-2.62398 v -5.83811 l -5.229739,2.62408 z m -0.304732,-18.11103 -5.229832,2.62406 5.263986,2.62399 5.229831,-2.62399 z m 6.102816,2.95499 v 5.838 l 5.229832,-2.62398 v -5.8381 z m -11.595901,11.57043 5.229832,-2.62398 v -5.8381 l -5.229832,2.62408 z m 5.797817,-2.82303 5.229739,-2.62408 v -5.83801 l -5.229739,2.62398 z"
       style="clip-rule:evenodd;fill:#bf616a;fill-rule:nonzero;stroke-width:0.091565;stroke-linejoin:round;stroke-miterlimit:2;fill-opacity:1"
       id="path1597" />
    <path
       d="m 101.96045,192.97493 5.08103,-2.54941 v -5.67234 l -5.08103,2.54977 z m 0,-6.28207 5.08103,-2.54941 v -5.67189 l -5.08103,2.54932 z m -6.525284,-20.70093 -5.110553,-2.54789 -5.080938,2.5494 5.110469,2.54781 z m -5.632747,2.82652 -5.110918,-2.54789 -5.081022,2.5494 5.110911,2.5479 z m 6.225135,2.55128 5.081026,-2.54977 -5.114214,-2.5494 -5.081022,2.5494 z m -10.747048,0.27675 5.114294,2.54976 5.081022,-2.54976 -5.114295,-2.54932 z m 16.383984,-2.54932 -5.081029,2.54932 5.114209,2.54941 5.08102,-2.54941 z m -22.60734,0 -5.081024,2.54932 5.110913,2.54789 5.081022,-2.54932 z m 5.66976,2.82652 -5.081022,2.5494 5.114203,2.54977 5.081022,-2.54977 z m 5.967593,26.70437 5.081022,-2.5494 v -5.6719 l -5.081022,2.54932 z m 0,-6.28207 5.081022,-2.5494 v -5.6719 l -5.081022,2.54932 z m -0.296411,-17.59569 -5.081022,2.54931 5.114294,2.54941 5.080931,-2.54941 z m -16.716511,15.67523 5.11091,2.54789 v -5.67189 l -5.11091,-2.54789 z m 0,-6.28207 5.11091,2.5479 v -5.6719 l -5.11091,-2.54789 z m 0,-6.31009 5.11091,2.5479 v -5.67198 l -5.11091,-2.5479 z m 5.670117,15.41877 5.114203,2.54931 v -5.67189 l -5.114203,-2.54941 z m 0,-6.28207 5.114203,2.54967 v -5.67225 l -5.114203,-2.54941 z m 0,-6.31018 5.114203,2.54941 v -5.67199 l -5.114203,-2.54931 z m 5.669753,15.41877 5.11421,2.5494 v -5.67198 l -5.11421,-2.54932 z m 0,-6.28207 5.11421,2.5494 V 186.674 l -5.11421,-2.54932 z m 0,-6.3101 5.11421,2.54932 v -5.67189 l -5.11421,-2.54941 z m 11.305897,12.31496 5.080932,-2.54931 v -5.67234 l -5.080932,2.54976 z m 0,-6.28206 5.080932,-2.54932 v -5.67199 l -5.080932,2.54941 z m -0.296061,-17.5957 -5.081021,2.5494 5.114203,2.54932 5.081021,-2.54932 z m 5.929163,2.87091 v 5.67189 l 5.08103,-2.54932 v -5.67198 z m -11.265947,11.24121 5.081022,-2.54932 v -5.67198 l -5.081022,2.54941 z m 5.632845,-2.74271 5.080932,-2.54941 v -5.6719 l -5.080932,2.54932 z"
       style="clip-rule:evenodd;fill:#a3be8c;fill-rule:nonzero;stroke-width:0.0889597;stroke-linejoin:round;stroke-miterlimit:2;fill-opacity:1"
       id="path1599" />
    <path
       d="m 119.12529,165.62172 5.12939,-2.57368 v -5.72634 l -5.12939,2.57404 z m 0,-6.34188 5.12939,-2.57367 v -5.7259 l -5.12939,2.57359 z m -6.58741,-20.898 -5.15921,-2.57215 -5.1293,2.57368 5.15912,2.57206 z m -5.68637,2.85343 -5.15957,-2.57215 -5.129386,2.57367 5.159556,2.57216 z m 6.2844,2.57557 5.12939,-2.57405 -5.1629,-2.57367 -5.12939,2.57367 z m -10.84936,0.27939 5.16298,2.57403 5.12939,-2.57403 -5.16298,-2.57359 z m 16.53995,-2.57359 -5.12939,2.57359 5.16289,2.57367 5.12939,-2.57367 z m -22.822543,0 -5.129396,2.57359 5.159569,2.57214 5.12938,-2.57359 z m 5.723723,2.85342 -5.12938,2.57368 5.16288,2.57404 5.12939,-2.57404 z m 6.0244,26.9586 5.1294,-2.57367 v -5.7259 l -5.1294,2.57359 z m 0,-6.34188 5.1294,-2.57367 v -5.72589 l -5.1294,2.57359 z m -0.29923,-17.7632 -5.12939,2.57358 5.16298,2.57368 5.1293,-2.57368 z m -16.875639,15.82446 5.159567,2.57215 v -5.72589 l -5.159567,-2.57215 z m 0,-6.34187 5.159567,2.57215 v -5.72589 l -5.159567,-2.57216 z m 0,-6.37017 5.159567,2.57215 v -5.72597 l -5.159567,-2.57216 z m 5.724098,15.56556 5.162881,2.57358 v -5.72588 l -5.162881,-2.57368 z m 0,-6.34187 5.162881,2.57394 v -5.72625 l -5.162881,-2.57368 z m 0,-6.37026 5.162881,2.57368 v -5.72598 l -5.162881,-2.57359 z m 5.723721,15.56556 5.16289,2.57367 v -5.72598 l -5.16289,-2.57359 z m 0,-6.34188 5.16289,2.57367 v -5.72597 l -5.16289,-2.57359 z m 0,-6.37017 5.16289,2.57359 v -5.72588 l -5.16289,-2.57369 z m 11.41353,12.4322 5.1293,-2.57358 v -5.72635 l -5.1293,2.57405 z m 0,-6.34187 5.1293,-2.57358 v -5.72599 l -5.1293,2.57368 z m -0.29888,-17.76321 -5.1294,2.57368 5.16289,2.57358 5.1294,-2.57358 z m 5.98561,2.89824 v 5.72589 l 5.12939,-2.57359 v -5.72598 z m -11.37321,11.34823 5.1294,-2.57359 v -5.72598 l -5.1294,2.57369 z m 5.68648,-2.76882 5.1293,-2.57368 v -5.7259 l -5.1293,2.57359 z"
       style="clip-rule:evenodd;fill:#88c0d0;fill-rule:nonzero;stroke-width:0.0898066;stroke-linejoin:round;stroke-miterlimit:2;fill-opacity:1"
       id="path1601" />
  </g>
</svg>
