<?xml version="1.0" encoding="UTF-8" standalone="no"?>
<!-- Created with Vectornator for iOS (http://vectornator.io/) -->

<svg
   style="fill-rule:evenodd;clip-rule:evenodd;stroke-linecap:round;stroke-linejoin:round;"
   xml:space="preserve"
   version="1.1"
   viewBox="0 0 1920 900"
   id="svg5447"
   sodipodi:docname="what-is-easifem.svg"
   inkscape:version="1.1.2 (0a00cf5339, 2022-02-04)"
   xmlns:inkscape="http://www.inkscape.org/namespaces/inkscape"
   xmlns:sodipodi="http://sodipodi.sourceforge.net/DTD/sodipodi-0.dtd"
   xmlns="http://www.w3.org/2000/svg"
   xmlns:svg="http://www.w3.org/2000/svg"
   xmlns:rdf="http://www.w3.org/1999/02/22-rdf-syntax-ns#"
   xmlns:cc="http://creativecommons.org/ns#"
   xmlns:dc="http://purl.org/dc/elements/1.1/"
   xmlns:vectornator="http://vectornator.io"><sodipodi:namedview
   pagecolor="#252933"
   bordercolor="#666666"
   borderopacity="1"
   objecttolerance="10"
   gridtolerance="10"
   guidetolerance="10"
   inkscape:pageopacity="0"
   inkscape:pageshadow="2"
   inkscape:window-width="1920"
   inkscape:window-height="1043"
   id="namedview5449"
   showgrid="false"
   inkscape:zoom="0.40006454"
   inkscape:cx="598.65341"
   inkscape:cy="809.86933"
   inkscape:window-x="0"
   inkscape:window-y="0"
   inkscape:window-maximized="1"
   inkscape:current-layer="svg5447"
   inkscape:pagecheckerboard="0"
   showguides="true"
   inkscape:guide-bbox="true"><inkscape:grid
     type="xygrid"
     id="grid218856" /><sodipodi:guide
     position="1753.3419,521.7589"
     orientation="1,0"
     id="guide563855" /></sodipodi:namedview>
<metadata
   id="metadata3612">
<vectornator:setting
   key="DynamicGuides"
   value="1" />
<vectornator:setting
   key="SnapToEdges"
   value="1" />
<vectornator:setting
   key="Units"
   value="Pixels" />
<vectornator:setting
   key="RulersVisible"
   value="1" />
<vectornator:setting
   key="SnapToGuides"
   value="1" />
<vectornator:setting
   key="GridSpacing"
   value="36" />
<rdf:RDF><cc:Work
     rdf:about=""><dc:format>image/svg+xml</dc:format><dc:type
       rdf:resource="http://purl.org/dc/dcmitype/StillImage" /></cc:Work></rdf:RDF></metadata>
<defs
   id="defs4780"><marker
     style="overflow:visible;"
     id="Arrow1Lend"
     refX="0.0"
     refY="0.0"
     orient="auto"
     inkscape:stockid="Arrow1Lend"
     inkscape:isstock="true"><path
       transform="scale(0.8) rotate(180) translate(12.5,0)"
       style="fill-rule:evenodd;fill:context-stroke;stroke:context-stroke;stroke-width:1.0pt;"
       d="M 0.0,0.0 L 5.0,-5.0 L -12.5,0.0 L 5.0,5.0 L 0.0,0.0 z "
       id="path319890" /></marker><radialGradient
     cy="271.756"
     gradientTransform="matrix(-0.325269,0.314901,0.253434,0.299456,1259.5618,408.9689)"
     gradientUnits="userSpaceOnUse"
     id="radialGradient16521"
     r="513.141"
     cx="511.256">
<stop
   id="stop16515"
   offset="0"
   stop-color="#33a8ff" />
<stop
   id="stop16517"
   offset="0.589537"
   stop-color="#33a8ff"
   stop-opacity="0.410463" />
<stop
   id="stop16519"
   offset="1"
   stop-color="#ffffff"
   stop-opacity="0"
   style="stop-color:#3a8ff0;stop-opacity:0" />
</radialGradient><linearGradient
     y1="92.9236"
     id="LinearGradient"
     x1="277.447"
     y2="139.669"
     x2="411.315"
     gradientUnits="userSpaceOnUse"
     gradientTransform="matrix(0.84640638,0,0,0.84640638,743.19191,508.5132)">
<stop
   stop-color="#1b4b8b"
   offset="0"
   id="stop3614" />
<stop
   stop-color="#072b5a"
   offset="1"
   id="stop3616" />
</linearGradient><linearGradient
     y1="79.5691"
     id="LinearGradient_3"
     x1="298.734"
     y2="79.5691"
     x2="322.392"
     gradientUnits="userSpaceOnUse"
     gradientTransform="matrix(0.74462133,0.13720466,-0.21542002,0.47426094,794.59859,518.1873)">
<stop
   stop-color="#bedaff"
   offset="0"
   id="stop3624" />
<stop
   stop-color="#5383c3"
   offset="1"
   id="stop3626" />
</linearGradient><linearGradient
     y1="178.541"
     id="LinearGradient_5"
     x1="439.475"
     y2="179.545"
     x2="135.018"
     gradientUnits="userSpaceOnUse"
     gradientTransform="matrix(0.84640638,0,0,0.84640638,743.19191,508.5132)">
<stop
   stop-color="#1b4b8b"
   offset="0"
   id="stop3634" />
<stop
   stop-color="#5383c3"
   offset="1"
   id="stop3636" />
</linearGradient><radialGradient
     cx="688.577"
     r="19.5537"
     id="yellow_star"
     gradientUnits="userSpaceOnUse"
     gradientTransform="matrix(0.645839,0,0,0.645839,156.218,337.828)"
     cy="333.698">
<stop
   stop-color="#ffffff"
   offset="0"
   id="stop3675" />
<stop
   stop-color="#ffffff"
   offset="0.251509"
   id="stop3677" />
<stop
   stop-opacity="0"
   stop-color="#ffffff"
   offset="1"
   id="stop3679" />
</radialGradient><radialGradient
     cx="688.577"
     r="39.8583"
     id="RadialGradient_7"
     gradientUnits="userSpaceOnUse"
     gradientTransform="matrix(0.645839,0,0,0.645839,156.218,337.828)"
     cy="333.698">
<stop
   stop-color="#ffffff"
   offset="0"
   id="stop3682" />
<stop
   stop-opacity="0"
   stop-color="#ffffff"
   offset="1"
   id="stop3684" />
</radialGradient><radialGradient
     cx="688.577"
     r="39.8583"
     id="RadialGradient_8"
     gradientUnits="userSpaceOnUse"
     gradientTransform="matrix(-1.88816e-8,0.645839,-0.431961,-2.82305e-8,745.072,108.633)"
     cy="333.698">
<stop
   stop-color="#ffffff"
   offset="0"
   id="stop3687" />
<stop
   stop-opacity="0"
   stop-color="#ffffff"
   offset="1"
   id="stop3689" />
</radialGradient><radialGradient
     cx="688.577"
     r="19.5537"
     id="RadialGradient_9"
     gradientUnits="userSpaceOnUse"
     gradientTransform="matrix(0.322919,0,0,0.322919,331.886,451.645)"
     cy="333.698">
<stop
   stop-color="#ffffff"
   offset="0"
   id="stop3692" />
<stop
   stop-color="#ffffff"
   offset="0.251509"
   id="stop3694" />
<stop
   stop-opacity="0"
   stop-color="#ffffff"
   offset="1"
   id="stop3696" />
</radialGradient><radialGradient
     cx="688.577"
     r="39.8583"
     id="RadialGradient_10"
     gradientUnits="userSpaceOnUse"
     gradientTransform="matrix(0.322919,0,0,0.322919,331.886,451.645)"
     cy="333.698">
<stop
   stop-color="#ffffff"
   offset="0"
   id="stop3699" />
<stop
   stop-opacity="0"
   stop-color="#ffffff"
   offset="1"
   id="stop3701" />
</radialGradient><radialGradient
     cx="688.577"
     r="39.8583"
     id="RadialGradient_11"
     gradientUnits="userSpaceOnUse"
     gradientTransform="matrix(0,0.322919,-0.21598,-1.41153e-8,626.314,337.048)"
     cy="333.698">
<stop
   stop-color="#ffffff"
   offset="0"
   id="stop3704" />
<stop
   stop-opacity="0"
   stop-color="#ffffff"
   offset="1"
   id="stop3706" />
</radialGradient><radialGradient
     cx="688.57703"
     r="19.553699"
     id="yellow_star-9"
     gradientUnits="userSpaceOnUse"
     gradientTransform="matrix(0.645839,0,0,0.645839,156.218,337.828)"
     cy="333.698"><stop
       stop-color="#ffffff"
       offset="0"
       id="stop3675-2" /><stop
       stop-color="#ffffff"
       offset="0.251509"
       id="stop3677-8" /><stop
       stop-opacity="0"
       stop-color="#ffffff"
       offset="1"
       id="stop3679-3" /></radialGradient><radialGradient
     cx="688.57703"
     r="39.858299"
     id="RadialGradient_7-0"
     gradientUnits="userSpaceOnUse"
     gradientTransform="matrix(0.645839,0,0,0.645839,156.218,337.828)"
     cy="333.698"><stop
       stop-color="#ffffff"
       offset="0"
       id="stop3682-1" /><stop
       stop-opacity="0"
       stop-color="#ffffff"
       offset="1"
       id="stop3684-7" /></radialGradient><radialGradient
     cx="688.57703"
     r="39.858299"
     id="RadialGradient_8-8"
     gradientUnits="userSpaceOnUse"
     gradientTransform="matrix(-1.88816e-8,0.645839,-0.431961,-2.82305e-8,745.072,108.633)"
     cy="333.698"><stop
       stop-color="#ffffff"
       offset="0"
       id="stop3687-9" /><stop
       stop-opacity="0"
       stop-color="#ffffff"
       offset="1"
       id="stop3689-1" /></radialGradient><linearGradient
     id="_Linear1"
     x1="0.3534115"
     y1="0.71860397"
     x2="0.98891985"
     y2="-0.21505889"
     gradientUnits="userSpaceOnUse"
     gradientTransform="matrix(339.865,167.147,-167.147,339.865,20.8333,10.581)"><stop
       offset="0"
       style="stop-color:#241c1c;stop-opacity:1"
       id="stop9" /><stop
       offset="0.23590045"
       style="stop-color:#ff6600;stop-opacity:1"
       id="stop1339" /><stop
       offset="0.59397119"
       style="stop-color:#c8ab37;stop-opacity:1"
       id="stop1533" /><stop
       offset="1"
       style="stop-color:#d5f6ff;stop-opacity:1"
       id="stop11" /></linearGradient><linearGradient
     id="_Linear1-3"
     x1="0"
     y1="0"
     x2="1.3375449"
     y2="0.4947184"
     gradientUnits="userSpaceOnUse"
     gradientTransform="matrix(43.162854,21.227669,-21.227669,43.162854,41.893915,117.79812)"><stop
       offset="0"
       style="stop-color:#006678;stop-opacity:1"
       id="stop9-1" /><stop
       offset="1"
       style="stop-color:#4fa8ff;stop-opacity:1"
       id="stop11-5" /></linearGradient><marker
     style="overflow:visible"
     id="Arrow1Lend-8"
     refX="0"
     refY="0"
     orient="auto"
     inkscape:stockid="Arrow1Lend"
     inkscape:isstock="true"><path
       transform="matrix(-0.8,0,0,-0.8,-10,0)"
       style="fill:context-stroke;fill-rule:evenodd;stroke:context-stroke;stroke-width:1pt"
       d="M 0,0 5,-5 -12.5,0 5,5 Z"
       id="path319890-2" /></marker><marker
     style="overflow:visible"
     id="Arrow1Lend-8-6"
     refX="0"
     refY="0"
     orient="auto"
     inkscape:stockid="Arrow1Lend"
     inkscape:isstock="true"><path
       transform="matrix(-0.8,0,0,-0.8,-10,0)"
       style="fill:context-stroke;fill-rule:evenodd;stroke:context-stroke;stroke-width:1pt"
       d="M 0,0 5,-5 -12.5,0 5,5 Z"
       id="path319890-2-8" /></marker><filter
     style="color-interpolation-filters:sRGB;"
     inkscape:label="Drop Shadow"
     id="filter54274"
     x="-0.080826471"
     y="-0.076636053"
     width="1.1616529"
     height="1.166577"><feFlood
       flood-opacity="1"
       flood-color="rgb(0,0,0)"
       result="flood"
       id="feFlood54264" /><feComposite
       in="flood"
       in2="SourceGraphic"
       operator="in"
       result="composite1"
       id="feComposite54266" /><feGaussianBlur
       in="composite1"
       stdDeviation="2.4"
       result="blur"
       id="feGaussianBlur54268" /><feOffset
       dx="0"
       dy="1"
       result="offset"
       id="feOffset54270" /><feComposite
       in="SourceGraphic"
       in2="offset"
       operator="over"
       result="fbSourceGraphic"
       id="feComposite54272" /><feColorMatrix
       result="fbSourceGraphicAlpha"
       in="fbSourceGraphic"
       values="0 0 0 -1 0 0 0 0 -1 0 0 0 0 -1 0 0 0 0 1 0"
       id="feColorMatrix54315" /><feFlood
       id="feFlood54317"
       flood-opacity="1"
       flood-color="rgb(0,0,0)"
       result="flood"
       in="fbSourceGraphic" /><feComposite
       in2="fbSourceGraphic"
       id="feComposite54319"
       in="flood"
       operator="in"
       result="composite1" /><feGaussianBlur
       id="feGaussianBlur54321"
       in="composite1"
       stdDeviation="2.4"
       result="blur" /><feOffset
       id="feOffset54323"
       dx="0"
       dy="1"
       result="offset" /><feComposite
       in2="offset"
       id="feComposite54325"
       in="fbSourceGraphic"
       operator="over"
       result="composite2" /></filter><filter
     style="color-interpolation-filters:sRGB;"
     inkscape:label="Drop Shadow"
     id="filter60150"
     x="-0.0038056109"
     y="-0.032041638"
     width="1.0076112"
     height="1.0696461"><feFlood
       flood-opacity="1"
       flood-color="rgb(0,0,0)"
       result="flood"
       id="feFlood60140" /><feComposite
       in="flood"
       in2="SourceGraphic"
       operator="in"
       result="composite1"
       id="feComposite60142" /><feGaussianBlur
       in="composite1"
       stdDeviation="2.4"
       result="blur"
       id="feGaussianBlur60144" /><feOffset
       dx="0"
       dy="1"
       result="offset"
       id="feOffset60146" /><feComposite
       in="SourceGraphic"
       in2="offset"
       operator="over"
       result="composite2"
       id="feComposite60148" /></filter><filter
     style="color-interpolation-filters:sRGB;"
     inkscape:label="Drop Shadow"
     id="filter60210"
     x="-0.0038224876"
     y="-0.047009861"
     width="1.007645"
     height="1.1021812"><feFlood
       flood-opacity="1"
       flood-color="rgb(0,0,0)"
       result="flood"
       id="feFlood60200" /><feComposite
       in="flood"
       in2="SourceGraphic"
       operator="in"
       result="composite1"
       id="feComposite60202" /><feGaussianBlur
       in="composite1"
       stdDeviation="2.4"
       result="blur"
       id="feGaussianBlur60204" /><feOffset
       dx="0"
       dy="1"
       result="offset"
       id="feOffset60206" /><feComposite
       in="SourceGraphic"
       in2="offset"
       operator="over"
       result="composite2"
       id="feComposite60208" /></filter><filter
     style="color-interpolation-filters:sRGB;"
     inkscape:label="Drop Shadow"
     id="filter60240"
     x="-0.0034095682"
     y="-0.047009861"
     width="1.0068191"
     height="1.1021812"><feFlood
       flood-opacity="1"
       flood-color="rgb(0,0,0)"
       result="flood"
       id="feFlood60230" /><feComposite
       in="flood"
       in2="SourceGraphic"
       operator="in"
       result="composite1"
       id="feComposite60232" /><feGaussianBlur
       in="composite1"
       stdDeviation="2.4"
       result="blur"
       id="feGaussianBlur60234" /><feOffset
       dx="0"
       dy="1"
       result="offset"
       id="feOffset60236" /><feComposite
       in="SourceGraphic"
       in2="offset"
       operator="over"
       result="composite2"
       id="feComposite60238" /></filter><filter
     style="color-interpolation-filters:sRGB;"
     inkscape:label="Drop Shadow"
     id="filter60444"
     x="-0.0044628972"
     y="-0.0655113"
     width="1.0089258"
     height="1.1407136"><feFlood
       flood-opacity="1"
       flood-color="rgb(143,188,187)"
       result="flood"
       id="feFlood60434" /><feComposite
       in="flood"
       in2="SourceGraphic"
       operator="in"
       result="composite1"
       id="feComposite60436" /><feGaussianBlur
       in="composite1"
       stdDeviation="2.4"
       result="blur"
       id="feGaussianBlur60438" /><feOffset
       dx="0"
       dy="1"
       result="offset"
       id="feOffset60440" /><feComposite
       in="SourceGraphic"
       in2="offset"
       operator="over"
       result="composite2"
       id="feComposite60442" /></filter><filter
     style="color-interpolation-filters:sRGB;"
     inkscape:label="Drop Shadow"
     id="filter60474"
     x="-0.004466373"
     y="-0.037606456"
     width="1.0089331"
     height="1.0807751"><feFlood
       flood-opacity="1"
       flood-color="rgb(143,188,187)"
       result="flood"
       id="feFlood60464" /><feComposite
       in="flood"
       in2="SourceGraphic"
       operator="in"
       result="composite1"
       id="feComposite60466" /><feGaussianBlur
       in="composite1"
       stdDeviation="2.4"
       result="blur"
       id="feGaussianBlur60468" /><feOffset
       dx="0"
       dy="1"
       result="offset"
       id="feOffset60470" /><feComposite
       in="SourceGraphic"
       in2="offset"
       operator="over"
       result="composite2"
       id="feComposite60472" /></filter><filter
     style="color-interpolation-filters:sRGB;"
     inkscape:label="Drop Shadow"
     id="filter60504"
     x="-0.0059613551"
     y="-0.073314163"
     width="1.0119227"
     height="1.1547898"><feFlood
       flood-opacity="1"
       flood-color="rgb(143,188,187)"
       result="flood"
       id="feFlood60494" /><feComposite
       in="flood"
       in2="SourceGraphic"
       operator="in"
       result="composite1"
       id="feComposite60496" /><feGaussianBlur
       in="composite1"
       stdDeviation="2.4"
       result="blur"
       id="feGaussianBlur60498" /><feOffset
       dx="0"
       dy="1"
       result="offset"
       id="feOffset60500" /><feComposite
       in="SourceGraphic"
       in2="offset"
       operator="over"
       result="composite2"
       id="feComposite60502" /></filter><filter
     style="color-interpolation-filters:sRGB;"
     inkscape:label="Drop Shadow"
     id="filter60534"
     x="-0.005429616"
     y="-0.07486153"
     width="1.0108592"
     height="1.1578845"><feFlood
       flood-opacity="1"
       flood-color="rgb(143,188,187)"
       result="flood"
       id="feFlood60524" /><feComposite
       in="flood"
       in2="SourceGraphic"
       operator="in"
       result="composite1"
       id="feComposite60526" /><feGaussianBlur
       in="composite1"
       stdDeviation="2.4"
       result="blur"
       id="feGaussianBlur60528" /><feOffset
       dx="0"
       dy="1"
       result="offset"
       id="feOffset60530" /><feComposite
       in="SourceGraphic"
       in2="offset"
       operator="over"
       result="composite2"
       id="feComposite60532" /></filter></defs>




<path
   style="opacity:1;fill:#fc9867;fill-opacity:0;stroke:none;stroke-width:3.7560463;stroke-linecap:round;stroke-linejoin:round;stroke-miterlimit:4;stroke-dasharray:none;stroke-dashoffset:0;stroke-opacity:1"
   d="m 1307.3102,652.98159 c 0,103.71629 -155.4961,131.69025 -347.3102,131.69024 -191.81412,0 -347.31018,-27.97395 -347.31018,-131.69024 C 612.68983,549.26531 768.18589,409.08193 960,409.08193 c 191.8141,-10e-6 347.3102,140.18337 347.3102,243.89966 z"
   id="path2076"
   inkscape:connector-curvature="0"
   sodipodi:nodetypes="sssss" />
<rect
   style="clip-rule:evenodd;opacity:1;fill:none;fill-opacity:1;fill-rule:evenodd;stroke:#a3be8c;stroke-width:2;stroke-linecap:round;stroke-linejoin:round;stroke-miterlimit:4;stroke-dasharray:none;stroke-opacity:1"
   id="rect47456-1"
   width="1506.8722"
   height="122.52749"
   x="246.46968"
   y="502.22891"
   rx="30"
   ry="30" /><rect
   style="clip-rule:evenodd;fill:none;fill-opacity:1;fill-rule:evenodd;stroke:#a3be8c;stroke-width:2;stroke-linecap:round;stroke-linejoin:round;stroke-miterlimit:4;stroke-dasharray:none;stroke-opacity:1"
   id="rect47456-1-5"
   width="1689.3635"
   height="122.52749"
   x="63.978352"
   y="683.12543"
   rx="30"
   ry="30" /><text
   xml:space="preserve"
   style="font-style:normal;font-variant:normal;font-weight:bold;font-stretch:normal;font-size:32px;line-height:1.25;font-family:sans-serif;-inkscape-font-specification:'sans-serif, Bold';font-variant-ligatures:normal;font-variant-caps:normal;font-variant-numeric:normal;font-variant-east-asian:normal;clip-rule:evenodd;fill:#a3be8c;fill-rule:evenodd;stroke-linecap:round;stroke-linejoin:round;fill-opacity:1"
   x="299.8125"
   y="579.30591"
   id="text3911-6"><tspan
     sodipodi:role="line"
     id="tspan3909-4"
     x="299.8125"
     y="579.30591"
     style="font-style:normal;font-variant:normal;font-weight:normal;font-stretch:normal;font-size:32px;font-family:sans-serif;-inkscape-font-specification:sans-serif;font-variant-ligatures:normal;font-variant-caps:normal;font-variant-numeric:normal;font-variant-east-asian:normal;fill:#a3be8c;fill-opacity:1">BASE</tspan></text><path
   d="m 181.19011,608.1559 21.70831,-10.89214 v -24.23463 l -21.70831,10.89367 z m 0,-26.83963 21.70831,-10.89213 v -24.23273 l -21.70831,10.89176 z m -27.87875,-88.44312 -21.83444,-10.88563 -21.70793,10.89207 21.83411,10.88537 z m -24.06548,12.07613 -21.83598,-10.88571 -21.70826,10.8921 21.83594,10.88575 z m 26.59643,10.90009 21.70824,-10.8937 -21.85004,-10.8921 -21.7083,10.8921 z m -45.91596,1.18243 21.85043,10.89366 21.70825,-10.89366 -21.85038,-10.89177 z m 69.99929,-10.89177 -21.7083,10.89177 21.85005,10.89212 21.70826,-10.89212 z m -96.58808,0 -21.708254,10.89177 21.835984,10.88568 21.70825,-10.8918 z m 24.22359,12.07608 -21.70825,10.89209 21.85005,10.89371 21.70825,-10.89371 z m 25.49608,114.09231 21.7083,-10.89213 v -24.23272 l -21.7083,10.89175 z m 0,-26.83962 21.7083,-10.89218 v -24.23267 l -21.7083,10.89175 z m -1.26638,-75.17624 -21.70826,10.89172 21.85042,10.89216 21.70788,-10.89216 z m -71.42,66.9712 21.83598,10.88566 v -24.23268 l -21.83598,-10.8857 z m 0,-26.83962 21.83598,10.88565 V 557.07706 L 60.37085,546.19141 Z m 0,-26.95943 21.83598,10.88575 v -24.23315 l -21.83598,-10.8857 z m 24.22517,65.87551 21.85001,10.89176 v -24.2327 L 84.59602,585.10712 Z m 0,-26.83963 21.85001,10.89329 V 569.15963 L 84.59602,558.26745 Z m 0,-26.95975 21.85001,10.89213 v -24.2331 L 84.59602,531.30811 Z m 24.22355,65.87545 21.85005,10.89213 v -24.2331 l -21.85005,-10.89175 z m 0,-26.83967 21.85005,10.89218 v -24.2331 l -21.85005,-10.89175 z m 0,-26.95938 21.85005,10.89177 v -24.23269 l -21.85005,-10.89218 z m 48.30355,52.61474 21.7079,-10.89176 v -24.23464 l -21.7079,10.8937 z m 0,-26.83964 21.7079,-10.89175 v -24.23314 l -21.7079,10.89218 z M 155.85824,518.21611 134.14999,529.1082 156,540 177.70825,529.1082 Z m 25.33187,12.26573 v 24.23269 l 21.70831,-10.89176 v -24.2331 z m -48.13288,48.02717 21.7083,-10.89177 v -24.2331 l -21.7083,10.89218 z m 24.06589,-11.71798 21.7079,-10.89218 v -24.23272 l -21.7079,10.89175 z"
   style="clip-rule:evenodd;fill:#a3be8c;fill-opacity:1;fill-rule:nonzero;stroke-width:0.380073;stroke-linecap:round;stroke-linejoin:round;stroke-miterlimit:2;filter:url(#filter54274)"
   id="path1597-4" /><path
   d="m 178.81957,197.05861 21.70831,-10.89214 v -24.23463 l -21.70831,10.89367 z m 0,-26.83963 21.70831,-10.89213 v -24.23273 l -21.70831,10.89176 z M 150.94082,81.77586 129.10638,70.89023 107.39845,81.7823 129.23256,92.66767 Z m -24.06548,12.07613 -21.83598,-10.88571 -21.70826,10.8921 21.83594,10.88575 z m 26.59643,10.90009 21.70824,-10.8937 -21.85004,-10.8921 -21.7083,10.8921 z m -45.91596,1.18243 21.85043,10.89366 21.70825,-10.89366 -21.85038,-10.89177 z m 69.99929,-10.89177 -21.7083,10.89177 21.85005,10.89212 21.70826,-10.89212 z m -96.58808,0 -21.70826,10.89177 21.83598,10.88568 21.70826,-10.8918 z m 24.22359,12.07608 -21.70825,10.89209 21.85005,10.89371 21.70825,-10.89371 z m 25.49608,114.09231 21.7083,-10.89213 v -24.23272 l -21.7083,10.89175 z m 0,-26.83962 21.7083,-10.89218 v -24.23267 l -21.7083,10.89175 z m -1.26638,-75.17624 -21.70826,10.89172 21.85042,10.89216 21.70788,-10.89216 z m -71.42,66.9712 21.83598,10.88566 v -24.23268 l -21.83598,-10.8857 z m 0,-26.83962 21.83598,10.88565 V 145.97977 L 58.00031,135.09412 Z m 0,-26.95943 21.83598,10.88575 v -24.23315 l -21.83598,-10.8857 z m 24.22517,65.87551 21.85001,10.89176 v -24.2327 L 82.22548,174.00983 Z m 0,-26.83963 21.85001,10.89329 V 158.06234 L 82.22548,147.17016 Z m 0,-26.95975 21.85001,10.89213 v -24.2331 L 82.22548,120.21082 Z m 24.22355,65.87545 21.85005,10.89213 v -24.2331 l -21.85005,-10.89175 z m 0,-26.83967 21.85005,10.89218 v -24.2331 l -21.85005,-10.89175 z m 0,-26.95938 21.85005,10.89177 v -24.23269 l -21.85005,-10.89218 z m 48.30355,52.61474 21.7079,-10.89176 v -24.23464 l -21.7079,10.8937 z m 0,-26.83964 21.7079,-10.89175 v -24.23314 l -21.7079,10.89218 z m -1.26488,-75.17623 -21.70825,10.89209 21.85001,10.8918 21.70825,-10.8918 z m 25.33187,12.26573 v 24.23269 l 21.70831,-10.89176 v -24.2331 z m -48.13288,48.02717 21.7083,-10.89177 v -24.2331 l -21.7083,10.89218 z m 24.06589,-11.71798 21.7079,-10.89218 v -24.23272 l -21.7079,10.89175 z"
   style="clip-rule:evenodd;fill:#88c0d0;fill-opacity:1;fill-rule:nonzero;stroke-width:0.380073;stroke-linecap:round;stroke-linejoin:round;stroke-miterlimit:2;filter:url(#filter54274)"
   id="path1597-4-31" /><rect
   style="clip-rule:evenodd;opacity:1;fill:none;fill-opacity:1;fill-rule:evenodd;stroke:#a3be8c;stroke-width:2;stroke-linecap:round;stroke-linejoin:round;stroke-opacity:1;stroke-miterlimit:4;stroke-dasharray:none;stroke-dashoffset:0"
   id="rect47456-1-0"
   width="1514.7655"
   height="103.18831"
   x="238.57643"
   y="99.039444"
   rx="30"
   ry="30.000002"
   inkscape:transform-center-x="1.8167235"
   inkscape:transform-center-y="-3.173331" /><text
   xml:space="preserve"
   style="font-style:normal;font-variant:normal;font-weight:bold;font-stretch:normal;font-size:32px;line-height:1.25;font-family:sans-serif;-inkscape-font-specification:'sans-serif, Bold';font-variant-ligatures:normal;font-variant-caps:normal;font-variant-numeric:normal;font-variant-east-asian:normal;clip-rule:evenodd;fill:#88c0d0;fill-rule:evenodd;stroke-linecap:round;stroke-linejoin:round;fill-opacity:1"
   x="287.8125"
   y="165.23352"
   id="text3911-6-6"><tspan
     sodipodi:role="line"
     id="tspan3909-4-5"
     x="287.8125"
     y="165.23352"
     style="font-style:normal;font-variant:normal;font-weight:normal;font-stretch:normal;font-size:32px;font-family:sans-serif;-inkscape-font-specification:sans-serif;font-variant-ligatures:normal;font-variant-caps:normal;font-variant-numeric:normal;font-variant-east-asian:normal;fill:#88c0d0;fill-opacity:1">KERNELS</tspan></text><path
   d="m 178.81957,417.55703 21.70831,-10.89214 v -24.23463 l -21.70831,10.89367 z m 0,-26.83963 21.70831,-10.89213 v -24.23273 l -21.70831,10.89176 z m -27.87875,-88.44312 -21.83444,-10.88563 -21.70793,10.89207 21.83411,10.88537 z m -24.06548,12.07613 -21.83598,-10.88571 -21.70826,10.8921 21.83594,10.88575 z m 26.59643,10.90009 21.70824,-10.8937 -21.85004,-10.8921 -21.7083,10.8921 z m -45.91596,1.18243 21.85043,10.89366 21.70825,-10.89366 -21.85038,-10.89177 z m 69.99929,-10.89177 -21.7083,10.89177 21.85005,10.89212 21.70826,-10.89212 z m -96.58808,0 -21.708258,10.89177 21.835978,10.88568 21.70826,-10.8918 z m 24.22359,12.07608 -21.70825,10.89209 21.85005,10.89371 21.70825,-10.89371 z m 25.49608,114.09231 21.7083,-10.89213 V 406.5847 l -21.7083,10.89175 z m 0,-26.83962 21.7083,-10.89218 v -24.23267 l -21.7083,10.89175 z m -1.26638,-75.17624 -21.70826,10.89172 21.85042,10.89216 21.70788,-10.89216 z m -71.420004,66.9712 21.835984,10.88566 v -24.23268 l -21.835984,-10.8857 z m 0,-26.83962 21.835984,10.88565 V 366.47819 L 58.000306,355.59254 Z m 0,-26.95943 21.835984,10.88575 v -24.23315 l -21.835984,-10.8857 z m 24.225174,65.87551 21.85001,10.89176 v -24.2327 L 82.22548,394.50825 Z m 0,-26.83963 21.85001,10.89329 V 378.56076 L 82.22548,367.66858 Z m 0,-26.95975 21.85001,10.89213 V 351.601 L 82.22548,340.70924 Z m 24.22355,65.87545 21.85005,10.89213 v -24.2331 L 106.44903,406.5847 Z m 0,-26.83967 21.85005,10.89218 v -24.2331 l -21.85005,-10.89175 z m 0,-26.95938 21.85005,10.89177 v -24.23269 l -21.85005,-10.89218 z m 48.30355,52.61474 21.7079,-10.89176 v -24.23464 l -21.7079,10.8937 z m 0,-26.83964 21.7079,-10.89175 v -24.23314 l -21.7079,10.89218 z m -1.26488,-75.17623 -21.70825,10.89209 21.85001,10.8918 21.70825,-10.8918 z m 25.33187,12.26573 v 24.23269 l 21.70831,-10.89176 v -24.2331 z m -48.13288,48.02717 21.7083,-10.89177 v -24.2331 l -21.7083,10.89218 z m 24.06589,-11.71798 21.7079,-10.89218 v -24.23272 l -21.7079,10.89175 z"
   style="clip-rule:evenodd;fill:#bf616a;fill-opacity:1;fill-rule:nonzero;stroke-width:0.380073;stroke-linecap:round;stroke-linejoin:round;stroke-miterlimit:2;filter:url(#filter54274)"
   id="path1597-4-3" /><rect
   style="clip-rule:evenodd;opacity:1;fill:none;fill-opacity:1;fill-rule:evenodd;stroke:#a3be8c;stroke-width:2;stroke-linecap:round;stroke-linejoin:round;stroke-opacity:1;stroke-miterlimit:4;stroke-dasharray:2,2;stroke-dashoffset:0"
   id="rect47456-1-2"
   width="1513.5547"
   height="179.7661"
   x="239.78726"
   y="-459.33789"
   transform="scale(1,-1)"
   rx="30"
   ry="30" /><text
   xml:space="preserve"
   style="font-style:normal;font-variant:normal;font-weight:bold;font-stretch:normal;font-size:32px;line-height:1.25;font-family:sans-serif;-inkscape-font-specification:'sans-serif, Bold';font-variant-ligatures:normal;font-variant-caps:normal;font-variant-numeric:normal;font-variant-east-asian:normal;clip-rule:evenodd;fill:#bf616a;fill-rule:evenodd;stroke-linecap:round;stroke-linejoin:round;fill-opacity:1"
   x="289.60419"
   y="385.3439"
   id="text3911-6-2"><tspan
     sodipodi:role="line"
     id="tspan3909-4-9"
     x="289.60419"
     y="385.3439"
     style="font-style:normal;font-variant:normal;font-weight:normal;font-stretch:normal;font-size:32px;font-family:sans-serif;-inkscape-font-specification:sans-serif;font-variant-ligatures:normal;font-variant-caps:normal;font-variant-numeric:normal;font-variant-east-asian:normal;fill:#bf616a;fill-opacity:1">CLASSES</tspan></text><text
   xml:space="preserve"
   style="font-style:normal;font-variant:normal;font-weight:normal;font-stretch:normal;font-size:32px;line-height:1.25;font-family:'Times New Roman';-inkscape-font-specification:'Times New Roman, Normal';font-variant-ligatures:normal;font-variant-caps:normal;font-variant-numeric:normal;font-variant-east-asian:normal;clip-rule:evenodd;fill:#bf616a;fill-rule:evenodd;stroke-linecap:round;stroke-linejoin:round;fill-opacity:1"
   x="562.43158"
   y="339.62439"
   id="text322079-8"><tspan
     sodipodi:role="line"
     id="tspan322077-8"
     x="562.43158"
     y="339.62439"
     style="font-style:normal;font-variant:normal;font-weight:normal;font-stretch:normal;font-size:32px;font-family:'Times New Roman';-inkscape-font-specification:'Times New Roman, Normal';font-variant-ligatures:normal;font-variant-caps:normal;font-variant-numeric:normal;font-variant-east-asian:normal;fill:#bf616a;fill-opacity:1"><tspan
   style="font-style:normal;font-variant:normal;font-weight:normal;font-stretch:normal;font-size:32px;font-family:'Times New Roman';-inkscape-font-specification:'Times New Roman, Normal';font-variant-ligatures:normal;font-variant-caps:normal;font-variant-numeric:normal;font-variant-east-asian:normal;fill:#bf616a;fill-opacity:1"
   id="tspan436986">Mid-level</tspan>, Object Orientated </tspan><tspan
     sodipodi:role="line"
     x="562.43158"
     y="379.62439"
     id="tspan322081-6"
     style="font-style:normal;font-variant:normal;font-weight:normal;font-stretch:normal;font-size:32px;font-family:'Times New Roman';-inkscape-font-specification:'Times New Roman, Normal';font-variant-ligatures:normal;font-variant-caps:normal;font-variant-numeric:normal;font-variant-east-asian:normal;fill:#bf616a;fill-opacity:1">Interface-Bindings: Gmsh, PlPlot, HDF5, XML, </tspan><tspan
     sodipodi:role="line"
     x="562.43158"
     y="419.62439"
     style="font-style:normal;font-variant:normal;font-weight:normal;font-stretch:normal;font-size:32px;font-family:'Times New Roman';-inkscape-font-specification:'Times New Roman, Normal';font-variant-ligatures:normal;font-variant-caps:normal;font-variant-numeric:normal;font-variant-east-asian:normal;fill:#bf616a;fill-opacity:1"
     id="tspan472961">VTK, TOML, PETSc, MPI, CUDA-Fortran, OpenMP, etc.</tspan></text><text
   xml:space="preserve"
   style="font-size:32px;line-height:1.25;font-family:'Times New Roman';-inkscape-font-specification:'Times New Roman, Normal';clip-rule:evenodd;fill:#88c0d0;fill-opacity:1;fill-rule:evenodd;stroke-linecap:round;stroke-linejoin:round;font-weight:normal;font-style:normal;font-stretch:normal;font-variant:normal;font-variant-ligatures:normal;font-variant-caps:normal;font-variant-numeric:normal;font-variant-east-asian:normal"
   x="559.29169"
   y="160.92819"
   id="text322079-8-5"><tspan
     sodipodi:role="line"
     x="559.29169"
     y="160.92819"
     id="tspan322081-6-4"
     style="font-size:32px;fill:#88c0d0;fill-opacity:1;-inkscape-font-specification:'Times New Roman, Normal';font-family:'Times New Roman';font-weight:normal;font-style:normal;font-stretch:normal;font-variant:normal;font-variant-ligatures:normal;font-variant-caps:normal;font-variant-numeric:normal;font-variant-east-asian:normal">Physics simulators</tspan></text><text
   xml:space="preserve"
   style="font-size:32px;line-height:1.25;font-family:'Times New Roman';-inkscape-font-specification:'Times New Roman, Normal';clip-rule:evenodd;fill-rule:evenodd;stroke-linecap:round;stroke-linejoin:round;fill:#a3be8c;font-weight:normal;font-style:normal;font-stretch:normal;font-variant:normal;font-variant-ligatures:normal;font-variant-caps:normal;font-variant-numeric:normal;font-variant-east-asian:normal;fill-opacity:1"
   x="559.29169"
   y="549.36981"
   id="text322079"><tspan
     sodipodi:role="line"
     id="tspan322077"
     x="559.29169"
     y="549.36981"
     style="font-size:32px;fill:#a3be8c;-inkscape-font-specification:'Times New Roman, Normal';font-family:'Times New Roman';font-weight:normal;font-style:normal;font-stretch:normal;font-variant:normal;font-variant-ligatures:normal;font-variant-caps:normal;font-variant-numeric:normal;font-variant-east-asian:normal;fill-opacity:1"><tspan
   style="font-weight:normal;fill:#a3be8c;-inkscape-font-specification:'Times New Roman, Normal';font-family:'Times New Roman';font-style:normal;font-stretch:normal;font-variant:normal;font-size:32px;font-variant-ligatures:normal;font-variant-caps:normal;font-variant-numeric:normal;font-variant-east-asian:normal;fill-opacity:1"
   id="tspan486659">Low level</tspan>, Multiple dispatch, BaseType, BaseMethods, </tspan><tspan
     sodipodi:role="line"
     x="559.29169"
     y="602.88593"
     id="tspan322081"
     style="font-size:32px;fill:#a3be8c;-inkscape-font-specification:'Times New Roman, Normal';font-family:'Times New Roman';font-weight:normal;font-style:normal;font-stretch:normal;font-variant:normal;font-variant-ligatures:normal;font-variant-caps:normal;font-variant-numeric:normal;font-variant-east-asian:normal;fill-opacity:1">Bindings: Sparsekit, LIS, Lapack, Blas, PlPlot, Metis, etc.</tspan></text><ellipse
   style="clip-rule:evenodd;opacity:0.5;fill:#999999;fill-rule:evenodd;stroke:#1a1a1a;stroke-width:1.02147;stroke-linecap:round;stroke-linejoin:round"
   id="path1197"
   cx="147.5573"
   cy="769.86359"
   rx="0.159159"
   ry="1.4191775" /><path
   d="m 155.54264,739.49123 7.57148,-3.79898 v -8.45266 l -7.57148,3.79956 z m 0,-9.36121 7.57148,-3.79898 v -8.45197 l -7.57148,3.79886 z m -9.72366,-30.84749 -7.6155,-3.79674 -7.57136,3.79898 7.61537,3.79664 z m -8.39364,4.21195 -7.61604,-3.79675 -7.57149,3.79898 7.61603,3.79676 z m 9.27638,3.80179 7.57149,-3.79956 -7.62094,-3.79898 -7.57149,3.79898 z m -16.01472,0.41239 7.62107,3.79952 7.57149,-3.79952 -7.62107,-3.79886 z m 24.4146,-3.79886 -7.57149,3.79886 7.62093,3.79898 7.57149,-3.79898 z m -33.68833,0 -7.57149,3.79886 7.61603,3.79676 7.57149,-3.7989 z m 8.44879,4.21194 -7.57148,3.79898 7.62093,3.79955 7.57149,-3.79955 z m 8.89262,39.7935 7.57148,-3.79898 v -8.45197 l -7.57148,3.79886 z m 0,-9.36122 7.57148,-3.79902 v -8.45193 l -7.57148,3.79887 z m -0.4417,-26.22022 -7.57149,3.79887 7.62107,3.79897 7.57135,-3.79897 z m -24.91012,23.35845 7.61603,3.79676 v -8.45197 l -7.61603,-3.79676 z m 0,-9.36121 7.61603,3.79672 v -8.45197 l -7.61603,-3.79672 z m 0,-9.40301 7.61603,3.79676 v -8.45212 l -7.61603,-3.79676 z m 8.44933,22.97628 7.62093,3.79887 v -8.45197 l -7.62093,-3.79898 z m 0,-9.36121 7.62093,3.7994 v -8.45251 l -7.62093,-3.79901 z m 0,-9.40312 7.62093,3.79901 v -8.45212 l -7.62093,-3.79886 z m 8.44878,22.97628 7.62095,3.79898 v -8.45209 l -7.62095,-3.79886 z m 0,-9.36126 7.62095,3.79902 v -8.45208 l -7.62095,-3.79887 z m 0,-9.40296 7.62095,3.79886 v -8.45197 l -7.62095,-3.79901 z m 16.84749,18.35114 7.57135,-3.79887 v -8.45262 l -7.57135,3.79952 z m 0,-9.36122 7.57135,-3.79886 v -8.45212 l -7.57135,3.79901 z m -0.44117,-26.22022 -7.57149,3.79898 7.62093,3.79886 7.57149,-3.79886 z m 8.83535,4.27806 v 8.45197 l 7.57148,-3.79886 v -8.45209 z m -16.78796,16.7511 7.57148,-3.79886 v -8.45212 l -7.57148,3.79901 z m 8.39378,-4.08703 7.57135,-3.79902 v -8.45197 l -7.57135,3.79887 z"
   style="clip-rule:evenodd;fill:#bf616a;fill-opacity:1;fill-rule:nonzero;stroke-width:0.132563;stroke-linecap:round;stroke-linejoin:round;stroke-miterlimit:2"
   id="path1597" /><path
   d="m 181.1264,779.46771 7.35606,-3.69089 v -8.21214 l -7.35606,3.69142 z m 0,-9.09484 7.35606,-3.69092 v -8.21146 l -7.35606,3.69077 z m -9.44697,-29.96979 -7.39881,-3.6887 -7.35592,3.69092 7.39868,3.68859 z m -8.15481,4.09213 -7.39933,-3.68874 -7.35604,3.69092 7.39931,3.6887 z m 9.01243,3.6936 7.35606,-3.69142 -7.4041,-3.69092 -7.35605,3.69092 z m -15.55903,0.40067 7.40422,3.69142 7.35605,-3.69142 -7.40422,-3.6908 z m 23.71991,-3.6908 -7.35606,3.6908 7.40409,3.69088 7.35605,-3.69088 z m -32.72977,0 -7.35605,3.6908 7.39932,3.6887 7.35605,-3.69077 z m 8.20839,4.09212 -7.35604,3.69088 7.40408,3.69142 7.35605,-3.69142 z m 8.63958,38.66124 7.35605,-3.69092 v -8.21149 l -7.35605,3.6908 z m 0,-9.09488 7.35605,-3.69088 v -8.21149 l -7.35605,3.69076 z m -0.42912,-25.47415 -7.35605,3.69076 7.40421,3.69092 7.35592,-3.69092 z m -24.20133,22.69381 7.39932,3.6887 v -8.21149 l -7.39932,-3.68869 z m 0,-9.09487 7.39932,3.68873 v -8.21149 l -7.39932,-3.6887 z m 0,-9.13541 7.39932,3.6887 v -8.21161 l -7.39932,-3.68869 z m 8.20892,22.32249 7.40408,3.69077 v -8.21149 l -7.40408,-3.69089 z m 0,-9.09484 7.40408,3.69126 v -8.21198 l -7.40408,-3.69092 z m 0,-9.13556 7.40408,3.69088 v -8.2116 l -7.40408,-3.69077 z m 8.20837,22.32249 7.4041,3.69092 v -8.21161 l -7.4041,-3.6908 z m 0,-9.09484 7.4041,3.69088 v -8.21161 l -7.4041,-3.69076 z m 0,-9.13545 7.4041,3.69077 v -8.21149 l -7.4041,-3.69088 z m 16.36811,17.82897 7.35592,-3.69077 v -8.2121 l -7.35592,3.69138 z m 0,-9.09485 7.35592,-3.69076 v -8.21164 l -7.35592,3.69092 z m -0.42862,-25.47415 -7.35605,3.69088 7.40409,3.69077 7.35604,-3.69077 z m 8.58394,4.15633 v 8.21149 l 7.35606,-3.69077 v -8.2116 z m -16.31027,16.27447 7.35605,-3.69077 v -8.2116 l -7.35605,3.69088 z m 8.15495,-3.97074 7.35592,-3.69092 v -8.21149 l -7.35592,3.69077 z"
   style="clip-rule:evenodd;fill:#a3be8c;fill-opacity:1;fill-rule:nonzero;stroke-width:0.128791;stroke-linecap:round;stroke-linejoin:round;stroke-miterlimit:2"
   id="path1599" /><path
   d="m 205.97679,739.86712 7.42607,-3.72605 v -8.29028 l -7.42607,3.72654 z m 0,-9.18145 7.42607,-3.72601 v -8.28967 l -7.42607,3.72589 z m -9.53692,-30.25506 -7.46924,-3.72383 -7.42594,3.72604 7.46911,3.7237 z m -8.23244,4.13106 -7.46976,-3.72384 -7.42607,3.72603 7.46975,3.72386 z m 9.09824,3.72877 7.42607,-3.72658 -7.47459,-3.72603 -7.42607,3.72603 z m -15.70716,0.4045 7.4747,3.72654 7.42608,-3.72654 -7.47471,-3.72593 z m 23.94571,-3.72593 -7.42608,3.72593 7.47457,3.72601 7.42607,-3.72601 z m -33.04133,0 -7.42608,3.72593 7.46977,3.72378 7.42605,-3.72589 z m 8.28652,4.13104 -7.42606,3.72605 7.47456,3.72654 7.42607,-3.72654 z m 8.72182,39.02931 7.42608,-3.72605 v -8.28966 l -7.42608,3.72593 z m 0,-9.18145 7.42608,-3.72604 v -8.28967 l -7.42608,3.72593 z m -0.43321,-25.7167 -7.42607,3.72593 7.4747,3.72605 7.42594,-3.72605 z m -24.4317,22.90986 7.46976,3.72383 v -8.28964 l -7.46976,-3.72382 z m 0,-9.18141 7.46976,3.72383 v -8.28967 l -7.46976,-3.72383 z m 0,-9.22243 7.46976,3.72382 v -8.28975 l -7.46976,-3.72386 z m 8.28706,22.53504 7.47456,3.72589 v -8.28963 l -7.47456,-3.72604 z m 0,-9.18145 7.47456,3.72643 v -8.29017 l -7.47456,-3.72604 z m 0,-9.22255 7.47456,3.72605 v -8.28979 l -7.47456,-3.72589 z m 8.28652,22.53504 7.47457,3.72605 v -8.28978 l -7.47457,-3.72593 z m 0,-9.18144 7.47457,3.72604 v -8.28978 l -7.47457,-3.72593 z m 0,-9.2224 7.47457,3.72589 v -8.28963 l -7.47457,-3.72605 z m 16.52393,17.99869 7.42594,-3.72589 v -8.29032 l -7.42594,3.72658 z m 0,-9.18145 7.42594,-3.72589 v -8.28978 l -7.42594,3.72604 z m -0.4327,-25.71666 -7.42609,3.72605 7.47457,3.72589 7.42609,-3.72589 z m 8.66566,4.19594 v 8.28963 l 7.42607,-3.72589 v -8.28979 z m -16.46556,16.42937 7.42608,-3.72589 v -8.28979 l -7.42608,3.72605 z m 8.2326,-4.00854 7.42594,-3.72605 v -8.28967 l -7.42594,3.72589 z"
   style="clip-rule:evenodd;fill:#88c0d0;fill-opacity:1;fill-rule:nonzero;stroke-width:0.130018;stroke-linecap:round;stroke-linejoin:round;stroke-miterlimit:2"
   id="path1601" /><text
   xml:space="preserve"
   style="font-size:42.6667px;line-height:1.25;font-family:'Times New Roman';-inkscape-font-specification:'Times New Roman, Normal';font-weight:normal;font-style:normal;font-stretch:normal;font-variant:normal;font-variant-ligatures:normal;font-variant-caps:normal;font-variant-numeric:normal;font-variant-east-asian:normal;fill:#bf616a;fill-opacity:1;stroke:#b48ead;stroke-opacity:1"
   x="248.77226"
   y="763.94208"
   id="text516322"><tspan
     sodipodi:role="line"
     id="tspan516320"
     x="248.77226"
     y="763.94208"
     style="font-style:normal;font-variant:normal;font-weight:normal;font-stretch:normal;font-size:42.66666667px;font-family:'Times New Roman';-inkscape-font-specification:'Times New Roman, Normal';fill:#bf616a;fill-opacity:1;font-variant-ligatures:normal;font-variant-caps:normal;font-variant-numeric:normal;font-variant-east-asian:normal;stroke:#b48ead;stroke-opacity:1">EASIFEM</tspan></text><text
   xml:space="preserve"
   style="font-style:normal;font-variant:normal;font-weight:normal;font-stretch:normal;font-size:32px;line-height:1.25;font-family:sans-serif;-inkscape-font-specification:'sans-serif, Normal';font-variant-ligatures:normal;font-variant-caps:normal;font-variant-numeric:normal;font-variant-east-asian:normal;clip-rule:evenodd;fill-rule:evenodd;stroke-linecap:round;stroke-linejoin:round;fill:#bf616a;fill-opacity:1;stroke:#b48ead;stroke-opacity:1"
   x="562.38214"
   y="754.40857"
   id="text3911"><tspan
     sodipodi:role="line"
     id="tspan3909"
     x="562.38214"
     y="754.40857"
     style="font-style:normal;font-variant:normal;font-weight:normal;font-stretch:normal;font-size:32px;font-family:sans-serif;-inkscape-font-specification:'sans-serif, Normal';font-variant-ligatures:normal;font-variant-caps:normal;font-variant-numeric:normal;font-variant-east-asian:normal;fill:#bf616a;fill-opacity:1;stroke:#b48ead;stroke-opacity:1">Multi level design architecture of EASIFEM</tspan></text></svg>
